<svg width="400" height="400" viewBox="0 0 400 400" fill="none" xmlns="http://www.w3.org/2000/svg">
<rect width="400" height="400" fill="white"/>
<rect x="31" y="154" width="337" height="92" fill="#F9F9F9"/>
<rect x="31" y="154" width="117" height="92" fill="#0E1116"/>
<path d="M76.984 228C76.28 228 75.672 227.712 75.16 227.136C73.944 225.728 72.44 224 70.648 221.952C68.92 219.84 67.064 217.6 65.08 215.232C63.16 212.864 61.24 210.56 59.32 208.32C57.464 206.016 55.8 203.968 54.328 202.176C52.408 203.968 50.648 205.6 49.048 207.072C47.448 208.48 46.168 209.632 45.208 210.528V225.6C45.208 226.24 44.984 226.816 44.536 227.328C44.088 227.776 43.512 228 42.808 228C42.168 228 41.592 227.776 41.08 227.328C40.632 226.816 40.408 226.24 40.408 225.6V179.04C40.408 178.336 40.632 177.76 41.08 177.312C41.592 176.864 42.168 176.64 42.808 176.64C43.512 176.64 44.088 176.864 44.536 177.312C44.984 177.76 45.208 178.336 45.208 179.04V204.096C47 202.432 49.08 200.512 51.448 198.336C53.88 196.096 56.408 193.76 59.032 191.328C61.656 188.832 64.216 186.4 66.712 184.032C69.208 181.6 71.416 179.392 73.336 177.408C73.848 176.896 74.424 176.64 75.064 176.64C75.704 176.64 76.248 176.896 76.696 177.408C77.208 177.856 77.464 178.4 77.464 179.04C77.464 179.552 77.24 180.096 76.792 180.672C74.296 183.296 71.32 186.272 67.864 189.6C64.472 192.864 61.144 196 57.88 199.008C59.352 200.736 61.016 202.752 62.872 205.056C64.792 207.36 66.744 209.696 68.728 212.064C70.712 214.432 72.568 216.672 74.296 218.784C76.088 220.896 77.592 222.656 78.808 224.064C79.192 224.448 79.384 224.96 79.384 225.6C79.384 226.176 79.16 226.72 78.712 227.232C78.264 227.744 77.688 228 76.984 228ZM109.121 228C102.977 228 98.0168 226.4 94.2408 223.2C90.5288 220 88.6728 215.488 88.6728 209.664C88.6728 205.76 89.5048 202.368 91.1688 199.488C92.8328 196.608 95.0408 194.368 97.7928 192.768C100.609 191.168 103.713 190.368 107.105 190.368C110.497 190.368 113.345 191.04 115.649 192.384C117.953 193.728 119.681 195.392 120.833 197.376C122.049 199.36 122.657 201.312 122.657 203.232C122.657 205.536 121.921 207.52 120.449 209.184C119.041 210.848 116.353 211.68 112.385 211.68H93.5688C94.0808 215.52 95.7448 218.4 98.5608 220.32C101.441 222.24 104.961 223.2 109.121 223.2C110.721 223.2 112.161 223.072 113.441 222.816C114.785 222.56 115.809 222.304 116.513 222.048C117.217 221.792 117.665 221.632 117.857 221.568C118.113 221.504 118.305 221.472 118.433 221.472C119.073 221.472 119.617 221.728 120.065 222.24C120.577 222.688 120.833 223.232 120.833 223.872C120.833 224.96 120.321 225.696 119.297 226.08C117.953 226.592 116.385 227.04 114.593 227.424C112.801 227.808 110.977 228 109.121 228ZM107.105 195.168C103.713 195.168 100.769 196.256 98.2728 198.432C95.7768 200.544 94.2408 203.36 93.6648 206.88H112.481C116.129 206.88 117.953 205.664 117.953 203.232C117.953 201.248 116.961 199.424 114.977 197.76C112.993 196.032 110.369 195.168 107.105 195.168ZM136.861 176.544C136.861 175.84 137.085 175.264 137.533 174.816C138.045 174.368 138.621 174.144 139.261 174.144C139.965 174.144 140.541 174.368 140.989 174.816C141.437 175.264 141.661 175.84 141.661 176.544V225.6C141.661 226.24 141.437 226.816 140.989 227.328C140.541 227.776 139.965 228 139.261 228C138.621 228 138.045 227.776 137.533 227.328C137.085 226.816 136.861 226.24 136.861 225.6V176.544Z" fill="#FF5722"/>
<path d="M177.222 228C171.334 228 167.142 226.784 164.646 224.352C162.15 221.856 160.902 218.528 160.902 214.368V195.168H154.854C154.214 195.168 153.638 194.944 153.126 194.496C152.678 193.984 152.454 193.408 152.454 192.768C152.454 192.064 152.678 191.488 153.126 191.04C153.638 190.592 154.214 190.368 154.854 190.368H160.902V180.672C160.902 179.968 161.126 179.392 161.574 178.944C162.086 178.496 162.662 178.272 163.302 178.272C164.006 178.272 164.582 178.496 165.03 178.944C165.478 179.392 165.702 179.968 165.702 180.672V190.368H178.47C179.174 190.368 179.75 190.592 180.198 191.04C180.646 191.488 180.87 192.064 180.87 192.768C180.87 193.408 180.646 193.984 180.198 194.496C179.75 194.944 179.174 195.168 178.47 195.168H165.702V214.368C165.702 220.256 169.542 223.2 177.222 223.2C177.926 223.2 178.502 223.456 178.95 223.968C179.398 224.416 179.622 224.96 179.622 225.6C179.622 226.24 179.366 226.816 178.854 227.328C178.406 227.776 177.862 228 177.222 228ZM207.15 189.984C211.054 189.984 214.414 190.88 217.23 192.672C220.11 194.4 222.318 196.768 223.854 199.776C225.454 202.72 226.254 206.016 226.254 209.664C226.254 213.184 225.454 216.352 223.854 219.168C222.318 221.984 220.11 224.224 217.23 225.888C214.414 227.552 211.054 228.384 207.15 228.384C203.31 228.384 199.95 227.552 197.07 225.888C194.19 224.224 191.95 221.952 190.35 219.072C188.814 216.192 188.046 212.992 188.046 209.472C188.046 205.888 188.814 202.624 190.35 199.68C191.886 196.736 194.094 194.4 196.974 192.672C199.854 190.88 203.246 189.984 207.15 189.984ZM207.15 194.784C204.206 194.784 201.646 195.456 199.47 196.8C197.358 198.144 195.726 199.936 194.574 202.176C193.422 204.352 192.846 206.784 192.846 209.472C192.846 213.44 194.126 216.8 196.686 219.552C199.31 222.24 202.798 223.584 207.15 223.584C211.502 223.584 214.958 222.24 217.518 219.552C220.142 216.864 221.454 213.568 221.454 209.664C221.454 206.912 220.878 204.416 219.726 202.176C218.574 199.936 216.91 198.144 214.734 196.8C212.622 195.456 210.094 194.784 207.15 194.784ZM243.929 243.936C243.929 244.576 243.705 245.12 243.257 245.568C242.809 246.08 242.233 246.336 241.529 246.336C240.889 246.336 240.313 246.08 239.801 245.568C239.353 245.12 239.129 244.576 239.129 243.936V192.768C239.129 192.064 239.353 191.488 239.801 191.04C240.313 190.592 240.889 190.368 241.529 190.368C242.233 190.368 242.809 190.592 243.257 191.04C243.705 191.488 243.929 192.064 243.929 192.768V196.608C245.977 194.624 248.121 193.088 250.361 192C252.665 190.912 255.065 190.368 257.561 190.368C260.569 190.368 263.353 191.072 265.913 192.48C268.537 193.888 270.649 196 272.249 198.816C273.849 201.568 274.649 205.024 274.649 209.184C274.649 212.768 273.881 216 272.345 218.88C270.809 221.696 268.665 223.936 265.913 225.6C263.161 227.2 259.993 228 256.409 228C254.297 228 252.185 227.648 250.073 226.944C247.961 226.24 245.913 225.28 243.929 224.064V243.936ZM256.409 223.2C260.441 223.2 263.673 221.856 266.105 219.168C268.601 216.416 269.849 213.088 269.849 209.184C269.849 204.704 268.633 201.248 266.201 198.816C263.769 196.384 260.889 195.168 257.561 195.168C254.873 195.168 252.377 195.968 250.073 197.568C247.833 199.104 245.785 201.152 243.929 203.712V218.304C245.785 219.712 247.769 220.896 249.881 221.856C252.057 222.752 254.233 223.2 256.409 223.2ZM290.29 170.688C291.378 170.688 292.306 171.136 293.074 172.032C293.842 172.864 294.226 174.016 294.226 175.488C294.226 176.96 293.842 178.08 293.074 178.848C292.306 179.616 291.41 180 290.386 180C289.234 180 288.242 179.616 287.41 178.848C286.642 178.016 286.258 176.896 286.258 175.488C286.258 174.016 286.642 172.864 287.41 172.032C288.178 171.136 289.138 170.688 290.29 170.688ZM287.986 192.768C287.986 192.064 288.21 191.488 288.658 191.04C289.17 190.592 289.746 190.368 290.386 190.368C291.09 190.368 291.666 190.592 292.114 191.04C292.562 191.488 292.786 192.064 292.786 192.768V225.6C292.786 226.24 292.562 226.816 292.114 227.328C291.666 227.776 291.09 228 290.386 228C289.746 228 289.17 227.776 288.658 227.328C288.21 226.816 287.986 226.24 287.986 225.6V192.768ZM336.891 227.136C335.483 225.664 334.395 223.808 333.627 221.568C331.451 223.616 329.051 225.216 326.427 226.368C323.867 227.456 321.083 228 318.075 228C315.131 228 312.795 227.456 311.067 226.368C309.339 225.28 308.123 223.936 307.419 222.336C306.715 220.736 306.363 219.232 306.363 217.824C306.363 216.288 306.619 214.816 307.131 213.408C307.707 211.936 308.571 210.656 309.723 209.568C311.323 208.096 313.467 206.848 316.155 205.824C318.843 204.8 322.139 204.288 326.043 204.288C328.091 204.288 330.267 204.384 332.571 204.576C332.315 201.696 331.355 199.424 329.691 197.76C328.027 196.032 325.531 195.168 322.203 195.168C320.923 195.168 319.611 195.296 318.267 195.552C316.923 195.744 315.899 195.968 315.195 196.224C314.363 196.544 313.755 196.704 313.371 196.704C312.731 196.704 312.155 196.48 311.643 196.032C311.131 195.52 310.875 194.976 310.875 194.4C310.875 193.184 311.419 192.384 312.507 192C313.595 191.68 315.035 191.328 316.827 190.944C318.683 190.56 320.475 190.368 322.203 190.368C327.451 190.368 331.291 191.808 333.723 194.688C336.219 197.568 337.467 201.312 337.467 205.92V214.656C337.467 216.832 337.691 218.656 338.139 220.128C338.651 221.536 339.387 222.784 340.347 223.872C340.795 224.32 341.019 224.864 341.019 225.504C341.019 226.144 340.763 226.72 340.251 227.232C339.803 227.68 339.259 227.904 338.619 227.904C337.979 227.904 337.403 227.648 336.891 227.136ZM318.075 223.2C320.827 223.2 323.451 222.592 325.947 221.376C328.443 220.096 330.683 218.176 332.667 215.616V209.376C330.299 209.184 328.091 209.088 326.043 209.088C319.963 209.088 315.675 210.336 313.179 212.832C312.411 213.6 311.867 214.4 311.547 215.232C311.291 216.064 311.163 216.928 311.163 217.824C311.163 219.104 311.707 220.32 312.795 221.472C313.947 222.624 315.707 223.2 318.075 223.2ZM357.036 218.112C358.316 218.112 359.372 218.624 360.204 219.648C361.036 220.608 361.452 221.824 361.452 223.296C361.452 225.088 361.036 226.4 360.204 227.232C359.436 228.064 358.412 228.48 357.132 228.48C356.108 228.48 355.116 228.064 354.156 227.232C353.196 226.4 352.716 225.088 352.716 223.296C352.716 221.76 353.1 220.512 353.868 219.552C354.636 218.592 355.692 218.112 357.036 218.112Z" fill="black"/>
</svg>
